<?xml version="1.0" encoding="UTF-8" standalone="no"?>
<!-- Created with Inkscape (http://www.inkscape.org/) -->

<svg
   width="250mm"
   height="250mm"
   viewBox="0 0 250 250"
   version="1.1"
   id="svg1"
   xml:space="preserve"
   inkscape:version="1.3.2 (091e20e, 2023-11-25)"
   sodipodi:docname="dibujo.svg"
   inkscape:export-filename="favicon.svg"
   inkscape:export-xdpi="96"
   inkscape:export-ydpi="96"
   xmlns:inkscape="http://www.inkscape.org/namespaces/inkscape"
   xmlns:sodipodi="http://sodipodi.sourceforge.net/DTD/sodipodi-0.dtd"
   xmlns="http://www.w3.org/2000/svg"
   xmlns:svg="http://www.w3.org/2000/svg"><sodipodi:namedview
     id="namedview1"
     pagecolor="#ffffff"
     bordercolor="#000000"
     borderopacity="0.25"
     inkscape:showpageshadow="2"
     inkscape:pageopacity="0.0"
     inkscape:pagecheckerboard="0"
     inkscape:deskcolor="#d1d1d1"
     inkscape:document-units="mm"
     inkscape:zoom="0.39187386"
     inkscape:cx="381.50032"
     inkscape:cy="479.74622"
     inkscape:window-width="1366"
     inkscape:window-height="706"
     inkscape:window-x="0"
     inkscape:window-y="0"
     inkscape:window-maximized="1"
     inkscape:current-layer="layer2" /><defs
     id="defs1" /><g
     inkscape:groupmode="layer"
     id="layer2"
     inkscape:label="Capa 2"
     transform="translate(-2.2506713e-7,-1.3836458)"
     style="display:inline"><rect
       style="display:none;fill:#e6e6e6;fill-opacity:1;stroke-width:0"
       id="rect9"
       width="303.14795"
       height="297.76981"
       x="0.16813174"
       y="1.5194552" /><rect
       style="display:inline;fill:#333333;fill-opacity:1;stroke-width:0"
       id="rect6"
       width="250"
       height="250"
       x="2.2506713e-07"
       y="1.3836458"
       ry="53.230263" /><g
       inkscape:label="Capa 1"
       inkscape:groupmode="layer"
       id="layer1"
       style="display:inline"><g
         id="g6"
         transform="matrix(1.1590412,0,0,1.1590412,13.989056,5.639733)"
         style="display:inline;fill:#e6e6e6;fill-opacity:1"><path
           style="fill:#e6e6e6;fill-opacity:1;stroke:#000000;stroke-width:0;stroke-opacity:1"
           d="M 98.074422,195.92894 C 84.226509,193.91295 71.567742,189.04558 60.081793,181.32055 36.607701,165.53273 21.250816,139.05119 18.751432,110.05015 16.926589,88.875996 24.567305,64.459746 38.433591,47.154919 59.343587,21.059692 92.527827,7.8314569 124.52504,12.836278 c 9.1633,1.433272 16.55055,3.735636 25.23618,7.865301 8.19641,3.897066 16.04911,8.986718 22.75474,14.748266 l -29.19795,35.256086 c -2.04083,0 -32.10131,-24.278391 -60.87321,-2.315752 -5.392812,4.11653 -4.872757,3.962093 -10.189316,3.02592 -6.340398,-1.116457 -16.208343,-1.475258 -20.327535,-0.739116 -4.048307,0.723472 -7.951298,2.979664 -9.183021,5.308412 -2.702528,5.109512 0.444667,12.434827 8.985769,20.915027 15.735255,15.623058 45.239765,30.048288 79.587583,38.911678 29.57142,7.63083 41.75363,34.95822 41.75363,35.15447 0,1.28702 -0.47868,1.98629 -2.76364,4.03721 -3.91,3.50951 -11.89753,8.76364 -17.86218,11.7496 -9.69215,4.85197 -19.27097,7.85629 -29.19736,9.15753 -6.54116,0.85747 -19.34517,0.86664 -25.174308,0.018 z m 21.434598,-47.10917 c 7.83444,-1.2707 15.32942,-4.07031 18.61143,-6.95195 2.19908,-1.93082 2.26067,-2.7869 0.22574,-3.13788 -8.61691,-1.4862 -15.80639,-2.90412 -19.61734,-3.86895 -13.70678,-3.47021 -29.839258,-9.07446 -46.445177,-16.13454 -2.431743,-1.03387 -4.648663,-1.87976 -4.926486,-1.87976 -0.801659,0 -0.59599,0.93836 1.116999,5.09634 4.893953,11.87917 15.090309,21.6218 26.558719,25.37687 6.758285,2.21284 16.427215,2.80535 24.476115,1.49987 z"
           id="path2"
           sodipodi:nodetypes="ssssssccsssssssssssssssssssss" /><path
           style="display:inline;fill:#e6e6e6;fill-opacity:1;stroke-width:0"
           d="m 153.84659,126.61673 c -0.66086,-0.13133 -1.37959,-0.40929 -1.59716,-0.6177 -0.21758,-0.20841 0.28371,-2.29887 1.11396,-4.64547 0.83026,-2.34661 1.91773,-5.96906 2.41661,-8.0499 0.49888,-2.08084 1.01601,-3.89229 1.14916,-4.02545 0.40522,-0.40521 6.67693,4.47917 9.26453,7.21518 4.46168,4.71758 5.07822,7.4616 2.07189,9.2215 -1.41601,0.82894 -2.5949,0.9971 -7.44981,1.0627 -3.17217,0.0429 -6.3083,-0.0295 -6.96918,-0.16086 z"
           id="path3" /><path
           style="fill:#e6e6e6;fill-opacity:1;stroke-width:0"
           d="M 63.727932,89.380815 C 57.398315,84.321501 53.97258,79.987528 54.53424,77.749687 c 0.663885,-2.645121 6.998081,-4.014253 14.845845,-3.208919 2.624185,0.26929 4.972907,0.614256 5.219388,0.766588 0.246478,0.152333 -0.09426,0.921578 -0.757198,1.709435 -1.573877,1.870446 -4.174395,6.590557 -5.791134,10.51129 -0.708538,1.718263 -1.430403,3.27025 -1.604147,3.448857 -0.173744,0.178612 -1.397323,-0.539644 -2.719062,-1.596123 z"
           id="path4" /></g><g
         id="text9"
         style="font-size:70.5556px;display:none;fill:#e6e6e6;fill-opacity:1;stroke:#000000;stroke-width:0"
         aria-label="comette"
         transform="matrix(1.9877162,0,0,1.9877162,194.25434,-382.60331)"><path
           style="font-weight:500;font-family:Raleway;-inkscape-font-specification:'Raleway Medium';fill:#e6e6e6;fill-opacity:1"
           d="m 26.687087,280.76067 q -4.162781,0 -7.620005,-1.48167 -3.386669,-1.55222 -5.926671,-4.23333 -2.469446,-2.68112 -3.880558,-6.13834 -1.3405564,-3.45723 -1.3405564,-7.33778 0,-5.22112 2.3283344,-9.52501 2.328335,-4.30389 6.561672,-6.84389 4.233336,-2.61056 9.807228,-2.61056 5.432782,0 9.454451,2.46945 4.092225,2.39889 6.067782,6.49111 l -6.067782,1.905 q -1.411112,-2.61055 -3.951114,-4.02167 -2.540001,-1.48166 -5.644448,-1.48166 -3.386669,0 -6.208893,1.76389 -2.751668,1.76389 -4.374447,4.86833 -1.622779,3.03389 -1.622779,6.98501 0,3.88055 1.622779,7.05556 1.693334,3.10444 4.445003,4.93889 2.822224,1.83444 6.208893,1.83444 2.187223,0 4.16278,-0.77611 2.046113,-0.77611 3.527781,-2.04611 1.552223,-1.34056 2.116668,-2.89278 l 6.067781,1.83445 q -1.128889,2.68111 -3.457224,4.79778 -2.257779,2.04611 -5.432782,3.24556 -3.104446,1.19944 -6.843893,1.19944 z m 38.523479,0 q -4.162781,0 -7.54945,-1.48167 -3.386669,-1.55222 -5.856115,-4.16278 -2.469446,-2.68111 -3.810002,-6.13833 -1.340557,-3.45723 -1.340557,-7.26723 0,-3.88056 1.340557,-7.33778 1.340556,-3.45723 3.810002,-6.06779 2.469446,-2.68111 5.856115,-4.16278 3.457225,-1.55222 7.620005,-1.55222 4.092225,0 7.478894,1.55222 3.386669,1.48167 5.856115,4.16278 2.540002,2.61056 3.880558,6.06779 1.340557,3.45722 1.340557,7.33778 0,3.81 -1.340557,7.26723 -1.340556,3.45722 -3.810002,6.13833 -2.469446,2.61056 -5.926671,4.16278 -3.386669,1.48167 -7.549449,1.48167 z m -12.20612,-18.97946 q 0,3.81001 1.622779,6.91445 1.693335,3.10445 4.445003,4.93889 2.751669,1.76389 6.138338,1.76389 3.386669,0 6.138337,-1.83444 2.822224,-1.83445 4.445003,-4.93889 1.693335,-3.17501 1.693335,-6.98501 0,-3.81 -1.693335,-6.91445 -1.622779,-3.10444 -4.445003,-4.93889 -2.751668,-1.83444 -6.138337,-1.83444 -3.386669,0 -6.138338,1.905 -2.751668,1.83444 -4.445003,4.93889 -1.622779,3.10445 -1.622779,6.985 z m 93.909574,18.2739 h -6.20889 v -20.60223 q 0,-5.78556 -1.90501,-8.53723 -1.83444,-2.75167 -5.50333,-2.75167 -3.73945,0 -6.77334,2.75167 -3.03389,2.68111 -4.30389,6.98501 v 22.15445 h -6.2089 v -20.60223 q 0,-5.85612 -1.83444,-8.53723 -1.83445,-2.75167 -5.50334,-2.75167 -3.66889,0 -6.77334,2.68112 -3.033887,2.61055 -4.303888,6.985 v 22.22501 h -6.208893 v -36.83002 h 5.644448 v 7.90223 q 2.25778,-4.09223 5.856113,-6.27945 3.59834,-2.25778 8.1139,-2.25778 4.58611,0 7.33778,2.54 2.75167,2.46945 3.38667,6.42056 2.46944,-4.37445 5.99722,-6.63223 3.52778,-2.32833 8.04334,-2.32833 3.17501,0 5.29167,1.19944 2.18723,1.12889 3.45723,3.24556 1.27,2.04612 1.83444,4.86834 0.56445,2.82222 0.56445,6.13834 z"
           id="path5" /><path
           style="font-weight:900;font-family:Raleway;-inkscape-font-specification:'Raleway Heavy';fill:#e6e6e6;fill-opacity:1"
           d="m 173.23124,280.76067 q -4.86834,0 -8.67834,-1.48167 -3.81,-1.55222 -6.42056,-4.16278 -2.54,-2.61055 -3.88056,-5.99722 -1.34055,-3.38667 -1.34055,-7.12612 0,-5.36223 2.32833,-9.80723 2.32834,-4.51556 6.8439,-7.19667 4.51555,-2.75167 11.14778,-2.75167 6.63223,0 11.14779,2.68111 4.51555,2.68112 6.84389,7.05556 2.32833,4.37445 2.32833,9.52501 0,1.05834 -0.14111,2.18722 -0.0706,1.05834 -0.21166,1.90501 h -26.03502 q 0.14111,1.97555 1.05833,3.24555 0.98778,1.19945 2.39889,1.76389 1.48167,0.56445 3.03389,0.56445 2.18723,0 4.09223,-0.98778 1.97556,-0.98778 2.61056,-2.75167 l 11.35945,3.24556 q -1.48167,2.96333 -4.16278,5.22111 -2.61056,2.25778 -6.20889,3.59834 -3.59834,1.27 -8.1139,1.27 z m -6.35,-23.21279 h 12.27667 q -0.21167,-1.83445 -1.05833,-3.10445 -0.77611,-1.27 -2.11667,-1.97556 -1.27,-0.70555 -2.96334,-0.70555 -1.69333,0 -3.03389,0.70555 -1.27,0.70556 -2.11667,1.97556 -0.77611,1.27 -0.98777,3.10445 z m 56.65605,20.46112 q -1.83444,0.77611 -3.95111,1.48167 -2.04611,0.635 -4.23334,0.98778 -2.11666,0.35278 -4.16278,0.35278 -3.03389,0 -5.57389,-0.98778 -2.54,-1.05834 -4.09222,-3.38667 -1.48167,-2.39889 -1.48167,-6.42056 v -17.0039 h -4.58612 v -10.08945 h 4.58612 v -11.64168 h 13.40556 v 11.64168 h 7.26723 v 10.08945 h -7.26723 v 12.27667 q 0,1.83445 0.77611,2.61056 0.77612,0.70556 2.11667,0.70556 0.98778,0 2.25778,-0.35278 1.27,-0.35278 2.54,-0.84667 z m 29.56286,0 q -1.83445,0.77611 -3.95112,1.48167 -2.04611,0.635 -4.23333,0.98778 -2.11667,0.35278 -4.16279,0.35278 -3.03389,0 -5.57389,-0.98778 -2.54,-1.05834 -4.09222,-3.38667 -1.48167,-2.39889 -1.48167,-6.42056 v -17.0039 h -4.58611 v -10.08945 h 4.58611 v -11.64168 h 13.40556 v 11.64168 h 7.26723 v 10.08945 h -7.26723 v 12.27667 q 0,1.83445 0.77612,2.61056 0.77611,0.70556 2.11666,0.70556 0.98778,0 2.25778,-0.35278 1.27,-0.35278 2.54,-0.84667 z m 21.66054,2.75167 q -4.86834,0 -8.67834,-1.48167 -3.81,-1.55222 -6.42056,-4.16278 -2.54,-2.61055 -3.88056,-5.99722 -1.34055,-3.38667 -1.34055,-7.12612 0,-5.36223 2.32833,-9.80723 2.32834,-4.51556 6.84389,-7.19667 4.51556,-2.75167 11.14779,-2.75167 6.63223,0 11.14779,2.68111 4.51555,2.68112 6.84389,7.05556 2.32833,4.37445 2.32833,9.52501 0,1.05834 -0.14111,2.18722 -0.0706,1.05834 -0.21166,1.90501 h -26.03502 q 0.14111,1.97555 1.05833,3.24555 0.98778,1.19945 2.39889,1.76389 1.48167,0.56445 3.03389,0.56445 2.18723,0 4.09223,-0.98778 1.97556,-0.98778 2.61056,-2.75167 l 11.35945,3.24556 q -1.48167,2.96333 -4.16278,5.22111 -2.61056,2.25778 -6.2089,3.59834 -3.59833,1.27 -8.11389,1.27 z m -6.35,-23.21279 h 12.27667 q -0.21167,-1.83445 -1.05833,-3.10445 -0.77611,-1.27 -2.11667,-1.97556 -1.27,-0.70555 -2.96334,-0.70555 -1.69333,0 -3.03389,0.70555 -1.27,0.70556 -2.11667,1.97556 -0.77611,1.27 -0.98777,3.10445 z"
           id="path6" /></g></g></g></svg>
