<?xml version="1.0" encoding="UTF-8" standalone="no"?>
<!-- Created with Inkscape (http://www.inkscape.org/) -->

<svg
   width="860.66602mm"
   height="192.30081mm"
   viewBox="0 0 860.66602 192.30081"
   version="1.1"
   id="svg1"
   xml:space="preserve"
   inkscape:version="1.3.2 (091e20e, 2023-11-25)"
   sodipodi:docname="horizontal_white.svg"
   inkscape:export-filename="Expertos/Comette-Website/public/horizontal_white.svg"
   inkscape:export-xdpi="96"
   inkscape:export-ydpi="96"
   xmlns:inkscape="http://www.inkscape.org/namespaces/inkscape"
   xmlns:sodipodi="http://sodipodi.sourceforge.net/DTD/sodipodi-0.dtd"
   xmlns="http://www.w3.org/2000/svg"
   xmlns:svg="http://www.w3.org/2000/svg"><sodipodi:namedview
     id="namedview1"
     pagecolor="#ffffff"
     bordercolor="#000000"
     borderopacity="0.25"
     inkscape:showpageshadow="2"
     inkscape:pageopacity="0.0"
     inkscape:pagecheckerboard="0"
     inkscape:deskcolor="#d1d1d1"
     inkscape:document-units="mm"
     inkscape:zoom="0.39187386"
     inkscape:cx="381.50032"
     inkscape:cy="479.74622"
     inkscape:window-width="1366"
     inkscape:window-height="706"
     inkscape:window-x="0"
     inkscape:window-y="0"
     inkscape:window-maximized="1"
     inkscape:current-layer="layer2" /><defs
     id="defs1" /><g
     inkscape:groupmode="layer"
     id="layer2"
     inkscape:label="Capa 2"
     transform="translate(-20.125407,-30.233238)"
     style="display:inline"><rect
       style="display:none;fill:#e6e6e6;fill-opacity:1;stroke-width:0"
       id="rect9"
       width="303.14795"
       height="297.76981"
       x="0.16813174"
       y="1.5194552" /><rect
       style="display:none;fill:#333333;fill-opacity:1;stroke-width:0"
       id="rect6"
       width="303.14795"
       height="297.76981"
       x="0.16813174"
       y="1.5194552" /><g
       inkscape:label="Capa 1"
       inkscape:groupmode="layer"
       id="layer1"
       style="display:inline"><g
         id="g6"
         transform="matrix(1.0407684,0,0,1.0407684,0.88721883,17.960883)"
         style="fill:#ffffff;fill-opacity:1"><path
           style="fill:#ffffff;fill-opacity:1;stroke:#000000;stroke-width:0;stroke-opacity:1"
           d="M 98.074422,195.92894 C 84.226509,193.91295 71.567742,189.04558 60.081793,181.32055 36.607701,165.53273 21.250816,139.05119 18.751432,110.05015 16.926589,88.875996 24.567305,64.459746 38.433591,47.154919 59.343587,21.059692 92.527827,7.8314569 124.52504,12.836278 c 9.1633,1.433272 16.55055,3.735636 25.23618,7.865301 8.19641,3.897066 16.04911,8.986718 22.75474,14.748266 l -29.19795,35.256086 c -2.04083,0 -32.10131,-24.278391 -60.87321,-2.315752 -5.392812,4.11653 -4.872757,3.962093 -10.189316,3.02592 -6.340398,-1.116457 -16.208343,-1.475258 -20.327535,-0.739116 -4.048307,0.723472 -7.951298,2.979664 -9.183021,5.308412 -2.702528,5.109512 0.444667,12.434827 8.985769,20.915027 15.735255,15.623058 45.239765,30.048288 79.587583,38.911678 29.57142,7.63083 41.75363,34.95822 41.75363,35.15447 0,1.28702 -0.47868,1.98629 -2.76364,4.03721 -3.91,3.50951 -11.89753,8.76364 -17.86218,11.7496 -9.69215,4.85197 -19.27097,7.85629 -29.19736,9.15753 -6.54116,0.85747 -19.34517,0.86664 -25.174308,0.018 z m 21.434598,-47.10917 c 7.83444,-1.2707 15.32942,-4.07031 18.61143,-6.95195 2.19908,-1.93082 2.26067,-2.7869 0.22574,-3.13788 -8.61691,-1.4862 -15.80639,-2.90412 -19.61734,-3.86895 -13.70678,-3.47021 -29.839258,-9.07446 -46.445177,-16.13454 -2.431743,-1.03387 -4.648663,-1.87976 -4.926486,-1.87976 -0.801659,0 -0.59599,0.93836 1.116999,5.09634 4.893953,11.87917 15.090309,21.6218 26.558719,25.37687 6.758285,2.21284 16.427215,2.80535 24.476115,1.49987 z"
           id="path2"
           sodipodi:nodetypes="ssssssccsssssssssssssssssssss" /><path
           style="display:inline;fill:#ffffff;fill-opacity:1;stroke-width:0"
           d="m 153.84659,126.61673 c -0.66086,-0.13133 -1.37959,-0.40929 -1.59716,-0.6177 -0.21758,-0.20841 0.28371,-2.29887 1.11396,-4.64547 0.83026,-2.34661 1.91773,-5.96906 2.41661,-8.0499 0.49888,-2.08084 1.01601,-3.89229 1.14916,-4.02545 0.40522,-0.40521 6.67693,4.47917 9.26453,7.21518 4.46168,4.71758 5.07822,7.4616 2.07189,9.2215 -1.41601,0.82894 -2.5949,0.9971 -7.44981,1.0627 -3.17217,0.0429 -6.3083,-0.0295 -6.96918,-0.16086 z"
           id="path3" /><path
           style="fill:#ffffff;fill-opacity:1;stroke-width:0"
           d="M 63.727932,89.380815 C 57.398315,84.321501 53.97258,79.987528 54.53424,77.749687 c 0.663885,-2.645121 6.998081,-4.014253 14.845845,-3.208919 2.624185,0.26929 4.972907,0.614256 5.219388,0.766588 0.246478,0.152333 -0.09426,0.921578 -0.757198,1.709435 -1.573877,1.870446 -4.174395,6.590557 -5.791134,10.51129 -0.708538,1.718263 -1.430403,3.27025 -1.604147,3.448857 -0.173744,0.178612 -1.397323,-0.539644 -2.719062,-1.596123 z"
           id="path4" /></g><g
         id="text9"
         style="font-size:70.5556px;display:inline;fill:#e6e6e6;fill-opacity:1;stroke:#000000;stroke-width:0"
         aria-label="comette"
         transform="matrix(1.9877162,0,0,1.9877162,194.25434,-382.60331)"><path
           style="font-weight:500;font-family:Raleway;-inkscape-font-specification:'Raleway Medium';fill:#ffffff;fill-opacity:1;stroke-width:0"
           d="m 34.300069,282.3974 q -4.811578,0 -8.807634,-1.7126 -3.914503,-1.79414 -6.850381,-4.89311 -2.854325,-3.099 -4.485368,-7.09505 -1.549487,-3.99606 -1.549487,-8.48143 0,-6.03486 2.691216,-11.00953 2.691221,-4.97469 7.584352,-7.91056 4.893129,-3.01743 11.335749,-3.01743 6.279516,0 10.927988,2.85432 4.730027,2.77277 7.013487,7.5028 l -7.013487,2.20191 q -1.631042,-3.01742 -4.56692,-4.64847 -2.935878,-1.7126 -6.524172,-1.7126 -3.914504,0 -7.176589,2.03882 -3.180534,2.03881 -5.056234,5.62708 -1.8757,3.50674 -1.8757,8.07366 0,4.48537 1.8757,8.15522 1.957251,3.58829 5.137787,5.70865 3.262084,2.12036 7.176589,2.12036 2.528115,0 4.811576,-0.89708 2.365013,-0.89707 4.077609,-2.36501 1.794148,-1.54949 2.446563,-3.34364 l 7.013486,2.12037 q -1.304834,3.09897 -3.996056,5.54555 -2.609668,2.365 -6.279515,3.7514 -3.588295,1.38637 -7.910559,1.38637 z m 44.52761,0 q -4.811573,0 -8.726076,-1.7126 -3.914504,-1.79414 -6.76883,-4.81158 -2.854324,-3.09897 -4.403815,-7.09502 -1.549492,-3.99607 -1.549492,-8.39988 0,-4.48536 1.549492,-8.48142 1.549491,-3.99605 4.403815,-7.01349 2.854326,-3.09899 6.76883,-4.81158 3.996056,-1.79414 8.807634,-1.79414 4.730022,0 8.644523,1.79414 3.914502,1.71259 6.768844,4.81158 2.935899,3.01744 4.485413,7.01349 1.549493,3.99606 1.549493,8.48142 0,4.40381 -1.549493,8.39988 -1.549514,3.99605 -4.403866,7.09502 -2.85433,3.01744 -6.850391,4.81158 -3.914501,1.7126 -8.726081,1.7126 z M 64.719162,260.45987 q 0,4.40382 1.875698,7.99211 1.957253,3.5883 5.137786,5.70865 3.180535,2.03881 7.095033,2.03881 3.914506,0 7.095049,-2.12036 3.262075,-2.12036 5.137772,-5.70865 1.957257,-3.66985 1.957257,-8.07367 0,-4.4038 -1.957257,-7.99211 -1.875697,-3.58828 -5.137772,-5.70864 -3.180543,-2.12036 -7.095049,-2.12036 -3.914498,0 -7.095033,2.20192 -3.180533,2.12035 -5.137786,5.70864 -1.875698,3.5883 -1.875698,8.07366 z m 108.546188,21.12201 h -7.17658 v -23.81321 q 0,-6.6873 -2.20193,-9.86782 -2.12034,-3.18055 -6.36106,-3.18055 -4.32226,0 -7.82899,3.18055 -3.50675,3.09896 -4.9747,8.07366 v 25.60737 h -7.17659 v -23.81321 q 0,-6.76886 -2.12035,-9.86782 -2.12036,-3.18055 -6.36107,-3.18055 -4.24071,0 -7.829,3.099 -3.50676,3.01742 -4.97471,8.07366 v 25.68892 h -7.17664 v -42.57022 h 6.52422 v 9.13385 q 2.60969,-4.73005 6.76886,-7.25815 4.15916,-2.60967 9.37851,-2.60967 5.30087,0 8.48142,2.93587 3.18053,2.85433 3.91449,7.42125 2.85432,-5.05624 6.93192,-7.66592 4.07761,-2.6912 9.29696,-2.6912 3.66985,0 6.11641,1.38639 2.52813,1.30481 3.99606,3.75138 1.46793,2.36503 2.12035,5.62712 0.65242,3.26207 0.65242,7.09503 z"
           id="path5" /><path
           style="font-weight:900;font-family:Raleway;-inkscape-font-specification:'Raleway Heavy';fill:#ffffff;fill-opacity:1;stroke-width:0"
           d="m 203.68429,282.3974 q -5.62712,0 -10.03092,-1.7126 -4.40382,-1.79414 -7.42124,-4.81158 -2.93588,-3.01741 -4.48537,-6.93192 -1.54949,-3.91451 -1.54949,-8.23677 0,-6.19797 2.69122,-11.33576 2.69122,-5.21934 7.91056,-8.31832 5.21933,-3.18052 12.88524,-3.18052 7.66591,0 12.88525,3.09896 5.21933,3.099 7.91055,8.15523 2.6912,5.05623 2.6912,11.00955 0,1.22328 -0.16309,2.5281 -0.0816,1.22329 -0.24465,2.20192 h -30.09274 q 0.1631,2.28346 1.22326,3.75139 1.14174,1.38639 2.77279,2.0388 1.71259,0.65243 3.50674,0.65243 2.52813,0 4.73002,-1.14173 2.28347,-1.14174 3.01745,-3.18052 l 13.12989,3.75138 q -1.7126,3.42519 -4.81159,6.03487 -3.01744,2.60966 -7.17657,4.15916 -4.15918,1.46793 -9.37851,1.46793 z m -7.3397,-26.83066 h 14.19008 q -0.24467,-2.12036 -1.22329,-3.58829 -0.89707,-1.46794 -2.44656,-2.28347 -1.46793,-0.8155 -3.42519,-0.8155 -1.95724,0 -3.50675,0.8155 -1.46794,0.81553 -2.44657,2.28347 -0.89706,1.46793 -1.14172,3.58829 z m 65.48627,23.65013 q -2.12034,0.89707 -4.56691,1.7126 -2.36502,0.73396 -4.89314,1.14173 -2.44655,0.40776 -4.81157,0.40776 -3.50675,0 -6.44262,-1.14173 -2.93587,-1.22329 -4.73002,-3.91449 -1.71261,-2.7728 -1.71261,-7.42127 V 250.3474 h -5.30088 v -11.66195 h 5.30088 v -13.4561 h 15.49492 v 13.4561 h 8.39988 v 11.66195 h -8.39988 v 14.19008 q 0,2.12036 0.89707,3.01744 0.89707,0.81551 2.44656,0.81551 1.14174,0 2.60967,-0.40775 1.46795,-0.40776 2.93589,-0.97862 z m 34.17043,0 q -2.12036,0.89707 -4.56694,1.7126 -2.365,0.73396 -4.89311,1.14173 -2.44657,0.40776 -4.81158,0.40776 -3.50675,0 -6.44263,-1.14173 -2.93587,-1.22329 -4.73002,-3.91449 -1.7126,-2.7728 -1.7126,-7.42127 V 250.3474 h -5.30089 v -11.66195 h 5.30089 v -13.4561 h 15.49491 v 13.4561 h 8.39987 v 11.66195 h -8.39987 v 14.19008 q 0,2.12036 0.89708,3.01744 0.89708,0.81551 2.44656,0.81551 1.14173,0 2.60967,-0.40775 1.46793,-0.40776 2.93587,-0.97862 z m 25.03647,3.18053 q -5.62709,0 -10.03091,-1.7126 -4.40381,-1.79414 -7.42125,-4.81158 -2.93588,-3.01741 -4.48537,-6.93192 -1.54948,-3.91451 -1.54948,-8.23677 0,-6.19797 2.6912,-11.33576 2.69125,-5.21934 7.91057,-8.31832 5.21935,-3.18052 12.88524,-3.18052 7.66591,0 12.88526,3.09896 5.21931,3.099 7.91054,8.15523 2.69123,5.05623 2.69123,11.00955 0,1.22328 -0.16311,2.5281 -0.0816,1.22329 -0.24464,2.20192 h -30.09276 q 0.16311,2.28346 1.22328,3.75139 1.14173,1.38639 2.77277,2.0388 1.7126,0.65243 3.50674,0.65243 2.52813,0 4.73004,-1.14173 2.28345,-1.14174 3.01742,-3.18052 l 13.12989,3.75138 q -1.71259,3.42519 -4.81156,6.03487 -3.01743,2.60966 -7.17661,4.15916 -4.15914,1.46793 -9.37849,1.46793 z m -7.33968,-26.83066 h 14.19006 q -0.24465,-2.12036 -1.22326,-3.58829 -0.89708,-1.46794 -2.44657,-2.28347 -1.46795,-0.8155 -3.42521,-0.8155 -1.95724,0 -3.50673,0.8155 -1.46794,0.81553 -2.44657,2.28347 -0.89707,1.46793 -1.14172,3.58829 z"
           id="path6" /></g></g></g></svg>
